# xmcd
#
# Track frame offsets:
#	150
#	12264
#	29199
#	41230
#	52301
#	64763
#	81367
#	94763
#	111709
#	132712
#
# Disc length: 1984 seconds
#
# Revision: 2
# Processed by: cddbd v1.5.2PL0 Copyright (c) Steve Scherf et al.
# Submitted via: EasyCDDAExtractor 11.1.0.1
#
DISCID=9f07be0a
DTITLE=Severin Sisters - Carefree Times
DYEAR=2007
DGENRE=Bluegrass
TTITLE0=Early July
TTITLE1=Don't Let Me Down
TTITLE2=I Need You
TTITLE3=Johnson's Barrel
TTITLE4=Soldiers Come Home
TTITLE5=Shatter
TTITLE6=Stay A Little Longer
TTITLE7=Blue World
TTITLE8=Haley Bird
TTITLE9=Time Flies
EXTD=
EXTT0=
EXTT1=
EXTT2=
EXTT3=
EXTT4=
EXTT5=
EXTT6=
EXTT7=
EXTT8=
EXTT9=
PLAYORDER=
